<!DOCTYPE svg PUBLIC "-//W3C//DTD SVG 1.1//EN" "http://www.w3.org/Graphics/SVG/1.1/DTD/svg11.dtd">
<!-- Uploaded to: SVG Repo, www.svgrepo.com, Transformed by: SVG Repo Mixer Tools -->
<svg width="800px" height="800px" viewBox="0 0 1024 1024" xmlns="http://www.w3.org/2000/svg" fill="#000000">
<g id="SVGRepo_bgCarrier" stroke-width="0"/>
<g id="SVGRepo_tracerCarrier" stroke-linecap="round" stroke-linejoin="round"/>
<g id="SVGRepo_iconCarrier">
<path fill="#e6e6e6" d="M512 896a320 320 0 1 0 0-640 320 320 0 0 0 0 640zm0 64a384 384 0 1 1 0-768 384 384 0 0 1 0 768z"/>
<path fill="#e6e6e6" d="M512 320a32 32 0 0 1 32 32l-.512 224a32 32 0 1 1-64 0L480 352a32 32 0 0 1 32-32z"/>
<path fill="#e6e6e6" d="M448 576a64 64 0 1 0 128 0 64 64 0 1 0-128 0zm96-448v128h-64V128h-96a32 32 0 0 1 0-64h256a32 32 0 1 1 0 64h-96z"/>
</g>
</svg>