<svg width="30" height="30" viewBox="0 0 30 30" fill="none" xmlns="http://www.w3.org/2000/svg">
<g clip-path="url(#clip0_178_32)">
<path d="M28.75 15C28.75 18.6467 27.3014 22.1441 24.7227 24.7227C22.1441 27.3014 18.6467 28.75 15 28.75C11.3533 28.75 7.85591 27.3014 5.27729 24.7227C2.69866 22.1441 1.25001 18.6467 1.25001 15C1.24895 13.9478 1.3706 12.8991 1.61251 11.875C2.31996 8.85534 4.02753 6.16353 6.45787 4.23676C8.88821 2.31 11.8986 1.26147 15 1.26147C18.1015 1.26147 21.1118 2.31 23.5421 4.23676C25.9725 6.16353 27.68 8.85534 28.3875 11.875C28.6294 12.8991 28.7511 13.9478 28.75 15Z" fill="#09090B"/>
<path d="M15.0008 22.5C22.3945 22.5 28.3883 17.743 28.3883 11.875C28.3883 6.00697 22.3945 1.25 15.0008 1.25C7.60707 1.25 1.61328 6.00697 1.61328 11.875C1.61328 17.743 7.60707 22.5 15.0008 22.5Z" fill="#09090B"/>
<path d="M15 0C12.0333 0 9.13319 0.879735 6.66645 2.52796C4.19972 4.17618 2.27713 6.51886 1.14181 9.25975C0.00649929 12.0006 -0.290551 15.0166 0.288228 17.9264C0.867006 20.8361 2.29562 23.5088 4.39341 25.6066C6.49119 27.7044 9.16394 29.133 12.0737 29.7118C14.9834 30.2906 17.9994 29.9935 20.7403 28.8582C23.4812 27.7229 25.8238 25.8003 27.4721 23.3336C29.1203 20.8668 30 17.9667 30 15C29.9957 11.0231 28.414 7.21026 25.6019 4.39815C22.7897 1.58604 18.9769 0.00430135 15 0ZM15 27.5C12.5277 27.5 10.111 26.7669 8.05538 25.3934C5.99976 24.0199 4.39761 22.0676 3.45151 19.7835C2.50542 17.4995 2.25788 14.9861 2.74019 12.5614C3.22251 10.1366 4.41302 7.90932 6.16117 6.16117C7.90933 4.41301 10.1366 3.2225 12.5614 2.74018C14.9861 2.25787 17.4995 2.50541 19.7836 3.45151C22.0676 4.3976 24.0199 5.99976 25.3934 8.05537C26.7669 10.111 27.5 12.5277 27.5 15C27.4964 18.3141 26.1782 21.4914 23.8348 23.8348C21.4914 26.1782 18.3141 27.4964 15 27.5Z" fill="#42D3B6"/>
<path d="M22.4997 13.75H10.5172L13.3835 10.8837C13.5029 10.7684 13.5981 10.6305 13.6636 10.478C13.7291 10.3255 13.7636 10.1615 13.765 9.99548C13.7665 9.82951 13.7349 9.66491 13.672 9.51129C13.6092 9.35767 13.5163 9.2181 13.399 9.10074C13.2816 8.98337 13.142 8.89055 12.9884 8.8277C12.8348 8.76485 12.6702 8.73322 12.5042 8.73467C12.3383 8.73611 12.1742 8.77059 12.0217 8.8361C11.8692 8.90161 11.7313 8.99684 11.616 9.11623L6.61598 14.1162C6.38164 14.3506 6.25 14.6685 6.25 15C6.25 15.3314 6.38164 15.6493 6.61598 15.8837L11.616 20.8837C11.8517 21.1114 12.1675 21.2374 12.4952 21.2346C12.823 21.2317 13.1365 21.1003 13.3683 20.8685C13.6 20.6367 13.7315 20.3232 13.7343 19.9955C13.7372 19.6677 13.6112 19.352 13.3835 19.1162L10.5172 16.25H22.4997C22.8313 16.25 23.1492 16.1183 23.3836 15.8839C23.618 15.6494 23.7497 15.3315 23.7497 15C23.7497 14.6685 23.618 14.3505 23.3836 14.1161C23.1492 13.8817 22.8313 13.75 22.4997 13.75Z" fill="#42D3B6"/>
</g>
<defs>
<clipPath id="clip0_178_32">
<rect width="30" height="30" fill="white"/>
</clipPath>
</defs>
</svg>
