<svg width="30" height="30" viewBox="0 0 30 30" fill="none" xmlns="http://www.w3.org/2000/svg">
<path fill-rule="evenodd" clip-rule="evenodd" d="M15 27.5C21.9035 27.5 27.5 21.9035 27.5 15C27.5 8.09644 21.9035 2.5 15 2.5C8.09644 2.5 2.5 8.09644 2.5 15C2.5 21.9035 8.09644 27.5 15 27.5ZM15 25C20.5229 25 25 20.5229 25 15C25 9.47715 20.5229 5 15 5C9.47715 5 5 9.47715 5 15C5 20.5229 9.47715 25 15 25Z" fill="#42D3B6"/>
<g clip-path="url(#clip0_176_353)">
<path d="M22 8L12.1758 18.5L8.15408 14.1682L7 15.3243L12.1758 21L22.5 10.5L22 8Z" fill="#42D3B6"/>
</g>
<defs>
<clipPath id="clip0_176_353">
<rect width="15" height="15" fill="white" transform="translate(7 7)"/>
</clipPath>
</defs>
</svg>
