<svg width="36" height="36" viewBox="0 0 36 36" fill="none" xmlns="http://www.w3.org/2000/svg">
<path d="M0.703613 18.0001C0.703613 20.2715 1.151 22.5206 2.02023 24.6191C2.88946 26.7176 4.1635 28.6244 5.76963 30.2305C7.37575 31.8366 9.2825 33.1107 11.381 33.9799C13.4795 34.8491 15.7287 35.2965 18.0001 35.2965C20.2715 35.2965 22.5206 34.8491 24.6191 33.9799C26.7176 33.1107 28.6244 31.8366 30.2305 30.2305C31.8366 28.6244 33.1107 26.7176 33.9799 24.6191C34.8491 22.5206 35.2965 20.2715 35.2965 18.0001C35.2965 15.7287 34.8491 13.4795 33.9799 11.381C33.1107 9.2825 31.8366 7.37575 30.2305 5.76963C28.6244 4.1635 26.7176 2.88946 24.6191 2.02023C22.5206 1.151 20.2715 0.703613 18.0001 0.703613C15.7287 0.703613 13.4795 1.151 11.381 2.02023C9.2825 2.88946 7.37575 4.1635 5.76963 5.76963C4.1635 7.37575 2.88946 9.2825 2.02023 11.381C1.151 13.4795 0.703613 15.7287 0.703613 18.0001Z" fill="#FDDF6D"/>
<path d="M21.7065 32.743C12.154 32.743 4.41014 24.9992 4.41014 15.4466C4.41014 10.3431 6.62097 5.75644 10.1367 2.59055C4.53705 5.4536 0.703613 11.2791 0.703613 18C0.703613 27.5525 8.44741 35.2964 18 35.2964C22.4489 35.2964 26.5051 33.6161 29.5698 30.8562C27.2107 32.0625 24.5381 32.743 21.7065 32.743Z" fill="#FCC56B"/>
<path d="M9.97021 12.6458C9.97021 13.3047 10.1 13.9572 10.3521 14.5659C10.6043 15.1747 10.9739 15.7278 11.4398 16.1937C11.9057 16.6596 12.4588 17.0292 13.0676 17.2813C13.6763 17.5335 14.3287 17.6633 14.9876 17.6633C15.6465 17.6633 16.299 17.5335 16.9077 17.2813C17.5165 17.0292 18.0696 16.6596 18.5355 16.1937C19.0014 15.7278 19.371 15.1747 19.6231 14.5659C19.8753 13.9572 20.0051 13.3047 20.0051 12.6458C20.0051 11.9869 19.8753 11.3345 19.6231 10.7258C19.371 10.117 19.0014 9.5639 18.5355 9.09799C18.0696 8.63208 17.5165 8.2625 16.9077 8.01035C16.299 7.7582 15.6465 7.62842 14.9876 7.62842C14.3287 7.62842 13.6763 7.7582 13.0676 8.01035C12.4588 8.2625 11.9057 8.63208 11.4398 9.09799C10.9739 9.5639 10.6043 10.117 10.3521 10.7258C10.1 11.3345 9.97021 11.9869 9.97021 12.6458Z" fill="white"/>
<path d="M24.0411 12.6458C24.0411 13.3047 24.1709 13.9572 24.4231 14.5659C24.6752 15.1747 25.0448 15.7278 25.5107 16.1937C25.9766 16.6596 26.5297 17.0292 27.1385 17.2813C27.7472 17.5335 28.3997 17.6633 29.0586 17.6633C29.7175 17.6633 30.3699 17.5335 30.9787 17.2813C31.5874 17.0292 32.1405 16.6596 32.6064 16.1937C33.0723 15.7278 33.4419 15.1747 33.6941 14.5659C33.9462 13.9572 34.076 13.3047 34.076 12.6458C34.076 11.9869 33.9462 11.3345 33.6941 10.7258C33.4419 10.117 33.0723 9.5639 32.6064 9.09799C32.1405 8.63208 31.5874 8.2625 30.9787 8.01035C30.3699 7.7582 29.7175 7.62842 29.0586 7.62842C28.3997 7.62842 27.7472 7.7582 27.1385 8.01035C26.5297 8.2625 25.9766 8.63208 25.5107 9.09799C25.0448 9.5639 24.6752 10.117 24.4231 10.7258C24.1709 11.3345 24.0411 11.9869 24.0411 12.6458Z" fill="white"/>
<path d="M10.5671 19.5667C9.28266 19.5667 8.24133 20.608 8.24133 21.8925H12.893C12.8929 20.608 11.8516 19.5667 10.5671 19.5667ZM30.8541 19.5667C29.5696 19.5667 28.5283 20.608 28.5283 21.8925H33.18C33.18 20.608 32.1386 19.5667 30.8541 19.5667Z" fill="#F9A880"/>
<path d="M25.2313 24.9732H17.7404C17.3517 24.9732 17.0367 24.6583 17.0367 24.2696C17.0367 23.8809 17.3518 23.566 17.7404 23.566H25.2313C25.6199 23.566 25.9349 23.8809 25.9349 24.2696C25.935 24.6583 25.6199 24.9732 25.2313 24.9732Z" fill="black"/>
<path d="M14.4 12.6C14.4 13.0774 14.5897 13.5352 14.9272 13.8728C15.2648 14.2104 15.7226 14.4 16.2 14.4C16.6774 14.4 17.1353 14.2104 17.4728 13.8728C17.8104 13.5352 18 13.0774 18 12.6C18 12.1226 17.8104 11.6648 17.4728 11.3272C17.1353 10.9897 16.6774 10.8 16.2 10.8C15.7226 10.8 15.2648 10.9897 14.9272 11.3272C14.5897 11.6648 14.4 12.1226 14.4 12.6Z" fill="#7F184C"/>
<path d="M28.8 12.6C28.8 13.0774 28.9897 13.5352 29.3273 13.8728C29.6648 14.2104 30.1227 14.4 30.6001 14.4C31.0774 14.4 31.5353 14.2104 31.8728 13.8728C32.2104 13.5352 32.4 13.0774 32.4 12.6C32.4 12.1226 32.2104 11.6648 31.8728 11.3272C31.5353 10.9897 31.0774 10.8 30.6001 10.8C30.1227 10.8 29.6648 10.9897 29.3273 11.3272C28.9897 11.6648 28.8 12.1226 28.8 12.6Z" fill="#7F184C"/>
<path d="M34.3229 10.4072C33.4498 8.3622 31.419 6.92494 29.0585 6.92494C25.9039 6.92494 23.3375 9.49134 23.3375 12.646C23.3375 15.8006 25.9039 18.367 29.0585 18.367C31.4061 18.367 33.4269 16.9453 34.3079 14.9181C34.498 15.9343 34.5934 16.966 34.5928 17.9998C34.5928 27.1491 27.1494 34.5924 18.0001 34.5924C8.85087 34.5924 1.4073 27.1493 1.4073 18C1.4073 8.85066 8.85066 1.4073 18 1.4073C21.0219 1.4073 23.9795 2.22729 26.5532 3.77866C26.886 3.97941 27.3184 3.87211 27.519 3.53932C27.7196 3.20646 27.6125 2.77404 27.2797 2.57344C24.4868 0.889875 21.278 0 18 0C8.07469 0 0 8.07469 0 18C0 27.9252 8.07469 36 18 36C27.9253 36 36 27.9253 36 18.0001C36 15.3441 35.4348 12.7915 34.3229 10.4072ZM33.3722 12.6461C33.3722 15.0248 31.4371 16.9599 29.0584 16.9599C26.6797 16.9599 24.7446 15.0247 24.7446 12.6461C24.7446 10.2675 26.6797 8.33231 29.0584 8.33231C30.7466 8.33231 32.2105 9.30769 32.9187 10.7239C32.9235 10.7352 32.9277 10.7467 32.9331 10.7579C32.9688 10.8314 33.0024 10.9058 33.037 10.9796C33.2589 11.5072 33.3728 12.0738 33.3722 12.6461Z" fill="black"/>
<path d="M14.988 6.92508C11.8334 6.92508 9.26697 9.49149 9.26697 12.6461C9.26697 15.8008 11.8334 18.3672 14.988 18.3672C18.1427 18.3672 20.7091 15.8008 20.7091 12.6461C20.7091 9.49149 18.1426 6.92508 14.988 6.92508ZM14.988 16.9599C12.6093 16.9599 10.6742 15.0247 10.6742 12.6461C10.6742 10.2675 12.6093 8.33231 14.988 8.33231C17.3667 8.33231 19.3018 10.2675 19.3018 12.6461C19.3018 15.0247 17.3666 16.9599 14.988 16.9599ZM17.0368 24.2694C17.0368 24.6581 17.3518 24.973 17.7404 24.973H25.2314C25.62 24.973 25.935 24.6581 25.935 24.2694C25.935 23.8807 25.6199 23.5658 25.2314 23.5658H17.7404C17.3518 23.5658 17.0368 23.8807 17.0368 24.2694Z" fill="black"/>
<path d="M28.355 4.65967C28.355 4.84628 28.4291 5.02525 28.5611 5.1572C28.693 5.28916 28.872 5.36329 29.0586 5.36329C29.2452 5.36329 29.4242 5.28916 29.5561 5.1572C29.6881 5.02525 29.7622 4.84628 29.7622 4.65967C29.7622 4.47306 29.6881 4.29409 29.5561 4.16214C29.4242 4.03019 29.2452 3.95605 29.0586 3.95605C28.872 3.95605 28.693 4.03019 28.5611 4.16214C28.4291 4.29409 28.355 4.47306 28.355 4.65967Z" fill="black"/>
</svg>
