<svg width="50" height="50" viewBox="0 0 50 50" fill="none" xmlns="http://www.w3.org/2000/svg">
<path d="M42.0248 14.0627H38.1478L28.6353 23.571C28.9629 24.406 28.993 25.3284 28.7206 26.1829C28.4481 27.0375 27.8898 27.7722 27.1393 28.2635C26.3889 28.7548 25.4922 28.9727 24.5999 28.8806C23.7077 28.7885 22.8744 28.392 22.2402 27.7578C21.6059 27.1235 21.2094 26.2902 21.1173 25.398C21.0252 24.5058 21.2431 23.6091 21.7344 22.8587C22.2257 22.1082 22.9604 21.5498 23.815 21.2774C24.6696 21.005 25.5919 21.0351 26.4269 21.3627L35.9373 11.8523V7.97522C35.9375 7.45642 36.1436 6.9589 36.5102 6.59188L40.1144 2.98772C40.1811 2.92059 40.2648 2.8729 40.3566 2.84977C40.4484 2.82665 40.5447 2.82896 40.6352 2.85647C40.8207 2.91063 40.9582 3.0648 40.9957 3.25438L41.954 8.04813L46.7457 9.00647C46.9332 9.04397 47.0873 9.18147 47.1415 9.36688C47.1689 9.45695 47.1713 9.55275 47.1486 9.64409C47.1258 9.73544 47.0787 9.81891 47.0123 9.88563L43.4061 13.4898C43.0396 13.856 42.5429 14.062 42.0248 14.0627Z" fill="#42D3B6"/>
<path d="M5.46875 25C5.46875 30.18 7.5265 35.1479 11.1893 38.8107C14.8521 42.4735 19.82 44.5313 25 44.5313C27.5649 44.5313 30.1046 44.0261 32.4743 43.0445C34.8439 42.063 36.997 40.6243 38.8107 38.8107C40.6243 36.997 42.063 34.8439 43.0445 32.4743C44.0261 30.1047 44.5312 27.5649 44.5312 25C44.5312 23.1292 44.2687 21.3208 43.7792 19.6104C43.6818 19.2177 43.7407 18.8025 43.9432 18.4523C44.1458 18.1021 44.4764 17.8441 44.8653 17.7326C45.2542 17.6211 45.6713 17.6649 46.0286 17.8546C46.386 18.0444 46.6558 18.3654 46.7812 18.75C47.3521 20.7375 47.6562 22.8333 47.6562 25C47.6562 37.5125 37.5125 47.6563 25 47.6563C12.4875 47.6563 2.34375 37.5125 2.34375 25C2.34375 12.4875 12.4875 2.34376 25 2.34376C27.1146 2.34168 29.2167 2.63543 31.25 3.21668C31.4483 3.27229 31.6336 3.36654 31.7953 3.49401C31.957 3.62148 32.0919 3.77966 32.1923 3.95944C32.2926 4.13923 32.3565 4.33708 32.3801 4.54163C32.4038 4.74617 32.3868 4.95337 32.3301 5.15132C32.2734 5.34927 32.1781 5.53406 32.0498 5.69507C31.9214 5.85608 31.7625 5.99014 31.5822 6.08953C31.4019 6.18892 31.2037 6.25169 30.999 6.27422C30.7943 6.29676 30.5872 6.27862 30.3896 6.22084C28.6368 5.72055 26.8228 5.46741 25 5.46876C19.82 5.46876 14.8521 7.52651 11.1893 11.1893C7.5265 14.8522 5.46875 19.82 5.46875 25Z" fill="#42D3B6"/>
<path d="M14.8441 25.0001C14.8499 26.3799 15.1369 27.7441 15.6875 29.0093C16.2382 30.2745 17.0409 31.4143 18.0467 32.3589C19.0525 33.3035 20.2403 34.0333 21.5375 34.5035C22.8348 34.9738 24.2143 35.1747 25.5918 35.0941C26.9693 35.0134 28.3159 34.6528 29.5494 34.0344C30.7828 33.4159 31.8773 32.5525 32.766 31.497C33.6547 30.4414 34.3189 29.2158 34.7181 27.8949C35.1173 26.5741 35.2431 25.1857 35.0879 23.8146C35.0441 23.537 35.0763 23.2526 35.181 22.9917C35.2857 22.7308 35.459 22.5031 35.6826 22.3327C35.9061 22.1623 36.1716 22.0556 36.4509 22.0238C36.7303 21.992 37.013 22.0363 37.2691 22.1521C37.792 22.3855 38.1441 22.8834 38.1899 23.4542C38.5134 26.1943 37.9752 28.9671 36.6501 31.3872C35.325 33.8073 33.2789 35.7545 30.7961 36.9581C28.3134 38.1617 25.5173 38.5619 22.7966 38.103C20.0759 37.6442 17.5657 36.3492 15.6149 34.398C13.6647 32.4489 12.3694 29.9412 11.9085 27.2227C11.4477 24.5043 11.8442 21.7098 13.0431 19.2268C14.242 16.7439 16.1838 14.6955 18.5993 13.3659C21.0147 12.0362 23.7841 11.4912 26.5233 11.8063C26.7303 11.8255 26.9315 11.8859 27.1149 11.9838C27.2984 12.0818 27.4604 12.2154 27.5916 12.3768C27.7227 12.5382 27.8203 12.7241 27.8787 12.9238C27.937 13.1234 27.9549 13.3326 27.9313 13.5392C27.9078 13.7459 27.8432 13.9457 27.7414 14.127C27.6396 14.3084 27.5026 14.4676 27.3385 14.5953C27.1743 14.723 26.9864 14.8167 26.7856 14.8708C26.5848 14.9249 26.3752 14.9384 26.1691 14.9105C24.7462 14.746 23.3047 14.8842 21.939 15.3162C20.5734 15.7481 19.3145 16.464 18.245 17.4168C17.1756 18.3696 16.3197 19.5378 15.7336 20.8447C15.1474 22.1516 14.8443 23.5677 14.8441 25.0001Z" fill="#42D3B6"/>
</svg>
