<svg width="15" height="18" viewBox="0 0 15 18" fill="none" xmlns="http://www.w3.org/2000/svg">
<path d="M5.83333 1.71429C5.59722 1.71429 5.39944 1.632 5.24 1.46743C5.08056 1.30286 5.00056 1.09943 5 0.857143C4.99944 0.614857 5.07944 0.411428 5.24 0.246857C5.40056 0.0822857 5.59833 0 5.83333 0H9.16667C9.40278 0 9.60083 0.0822857 9.76083 0.246857C9.92083 0.411428 10.0006 0.614857 10 0.857143C9.99944 1.09943 9.91944 1.30314 9.76 1.46829C9.60055 1.63343 9.40278 1.71543 9.16667 1.71429H5.83333ZM7.5 11.1429C7.73611 11.1429 7.93417 11.0606 8.09417 10.896C8.25417 10.7314 8.33389 10.528 8.33333 10.2857V6.85714C8.33333 6.61428 8.25333 6.41086 8.09333 6.24686C7.93333 6.08286 7.73556 6.00057 7.5 6C7.26444 5.99943 7.06667 6.08171 6.90667 6.24686C6.74667 6.412 6.66667 6.61543 6.66667 6.85714V10.2857C6.66667 10.5286 6.74667 10.7323 6.90667 10.8969C7.06667 11.0614 7.26444 11.1434 7.5 11.1429ZM7.5 18C6.47222 18 5.50333 17.7966 4.59333 17.3897C3.68333 16.9829 2.88833 16.4291 2.20833 15.7286C1.52833 15.028 0.990278 14.21 0.594167 13.2746C0.198056 12.3391 0 11.3429 0 10.2857C0 9.22857 0.198056 8.232 0.594167 7.296C0.990278 6.36 1.52833 5.54228 2.20833 4.84286C2.88833 4.14343 3.68361 3.59 4.59417 3.18257C5.50472 2.77514 6.47333 2.57143 7.5 2.57143C8.36111 2.57143 9.1875 2.71429 9.97917 3C10.7708 3.28571 11.5139 3.7 12.2083 4.24286L12.7917 3.64286C12.9444 3.48571 13.1389 3.40714 13.375 3.40714C13.6111 3.40714 13.8056 3.48571 13.9583 3.64286C14.1111 3.8 14.1875 4 14.1875 4.24286C14.1875 4.48571 14.1111 4.68571 13.9583 4.84286L13.375 5.44286C13.9028 6.15714 14.3056 6.92143 14.5833 7.73571C14.8611 8.55 15 9.4 15 10.2857C15 11.3429 14.8019 12.3394 14.4058 13.2754C14.0097 14.2114 13.4717 15.0291 12.7917 15.7286C12.1117 16.428 11.3164 16.9817 10.4058 17.3897C9.49528 17.7977 8.52667 18.0011 7.5 18ZM7.5 16.2857C9.11111 16.2857 10.4861 15.7 11.625 14.5286C12.7639 13.3571 13.3333 11.9429 13.3333 10.2857C13.3333 8.62857 12.7639 7.21428 11.625 6.04286C10.4861 4.87143 9.11111 4.28571 7.5 4.28571C5.88889 4.28571 4.51389 4.87143 3.375 6.04286C2.23611 7.21428 1.66667 8.62857 1.66667 10.2857C1.66667 11.9429 2.23611 13.3571 3.375 14.5286C4.51389 15.7 5.88889 16.2857 7.5 16.2857Z" fill="#D8D8D8"/>
</svg>
