<svg width="25" height="25" viewBox="0 0 25 25" fill="none" xmlns="http://www.w3.org/2000/svg">
<path d="M15.3926 3.04418C15.6896 3.12893 15.9413 3.32988 16.0923 3.60284C16.2433 3.8758 16.2812 4.19843 16.1978 4.49978L11.0432 23.1381C11.002 23.2873 10.9321 23.4269 10.8377 23.5488C10.7433 23.6708 10.6261 23.7726 10.4929 23.8486C10.3596 23.9245 10.213 23.9731 10.0612 23.9916C9.90951 24.0101 9.75567 23.998 9.60853 23.9562C9.46138 23.9143 9.32379 23.8435 9.20363 23.7476C9.08348 23.6518 8.98309 23.533 8.90821 23.3978C8.83334 23.2626 8.78543 23.1138 8.76724 22.9599C8.74904 22.8059 8.76091 22.6499 8.80217 22.5006L13.9568 3.86229C13.998 3.71286 14.0679 3.57314 14.1624 3.45112C14.2569 3.32911 14.3742 3.22719 14.5075 3.15121C14.6409 3.07522 14.7877 3.02666 14.9396 3.0083C15.0915 2.98993 15.2454 3.00213 15.3926 3.04418ZM6.923 7.65653C7.14114 7.87791 7.26368 8.17813 7.26368 8.49117C7.26368 8.8042 7.14114 9.10442 6.923 9.3258L2.80978 13.5002L6.923 17.6734C7.03111 17.783 7.11688 17.9131 7.17542 18.0563C7.23395 18.1996 7.26411 18.3531 7.26416 18.5082C7.26422 18.6632 7.23417 18.8168 7.17573 18.9601C7.11729 19.1033 7.03161 19.2335 6.92358 19.3432C6.81555 19.4529 6.68729 19.5399 6.54611 19.5993C6.40493 19.6587 6.2536 19.6893 6.10077 19.6894C5.94793 19.6894 5.79659 19.6589 5.65537 19.5996C5.51415 19.5404 5.38582 19.4534 5.27771 19.3438L0.340678 14.3348C0.122542 14.1134 0 13.8132 0 13.5002C0 13.1871 0.122542 12.8869 0.340678 12.6655L5.27771 7.65653C5.49591 7.43521 5.79182 7.31089 6.10036 7.31089C6.40889 7.31089 6.7048 7.43521 6.923 7.65653ZM18.077 9.3258C17.9659 9.2169 17.8772 9.08664 17.8162 8.94261C17.7553 8.79858 17.7232 8.64367 17.7218 8.48692C17.7205 8.33017 17.7499 8.17472 17.8084 8.02963C17.8669 7.88455 17.9533 7.75274 18.0626 7.6419C18.1718 7.53105 18.3017 7.44339 18.4447 7.38404C18.5877 7.32468 18.741 7.29481 18.8955 7.29617C19.05 7.29753 19.2026 7.3301 19.3446 7.39197C19.4866 7.45384 19.615 7.54378 19.7223 7.65653L24.6593 12.6655C24.8775 12.8869 25 13.1871 25 13.5002C25 13.8132 24.8775 14.1134 24.6593 14.3348L19.7223 19.3438C19.504 19.5652 19.2079 19.6895 18.8992 19.6894C18.5906 19.6893 18.2946 19.5647 18.0764 19.3432C17.8582 19.1217 17.7357 18.8213 17.7358 18.5082C17.7359 18.195 17.8587 17.8947 18.077 17.6734L22.1902 13.5002L18.077 9.3258Z" fill="#42D4B7"/>
</svg>
