<svg width="25" height="25" viewBox="0 0 25 25" fill="none" xmlns="http://www.w3.org/2000/svg">
<path d="M14.583 2.0835H10.4163C6.99967 2.0835 5.29238 2.0835 4.08197 2.93141C3.63409 3.24503 3.24454 3.63458 2.93092 4.08245C2.08301 5.29183 2.08301 7.00016 2.08301 10.4168C2.08301 13.8335 2.08301 15.5408 2.93092 16.7512C3.24454 17.1991 3.63409 17.5886 4.08197 17.9022C5.29134 18.7502 6.99967 18.7502 10.4163 18.7502H14.583C17.9997 18.7502 19.707 18.7502 20.9174 17.9022C21.3653 17.5886 21.7548 17.1991 22.0684 16.7512C22.9163 15.5418 22.9163 13.8335 22.9163 10.4168C22.9163 7.00016 22.9163 5.29287 22.0684 4.08245C21.7548 3.63458 21.3653 3.24503 20.9174 2.93141C19.708 2.0835 17.9997 2.0835 14.583 2.0835Z" stroke="#3EE0CF" stroke-width="1.5" stroke-linecap="round"/>
<path d="M16.6667 8.33366L17.9448 9.4347C18.4812 9.89824 18.75 10.1295 18.75 10.417C18.75 10.7045 18.4812 10.9357 17.9448 11.3993L16.6667 12.5003M8.33333 8.33366L7.05521 9.4347C6.51875 9.89824 6.25 10.1295 6.25 10.417C6.25 10.7045 6.51875 10.9357 7.05521 11.3993L8.33333 12.5003M13.5417 7.29199L11.4583 13.542" stroke="#3EE0CF" stroke-width="1.5" stroke-linecap="round" stroke-linejoin="round"/>
<path d="M15.266 22.9167L14.8285 22.4802C14.3488 22.0007 14.0323 21.3823 13.9238 20.7127C13.8154 20.0431 13.9205 19.3564 14.2243 18.75M9.37435 22.9167L9.81185 22.4802C10.2916 22.0007 10.6081 21.3823 10.7165 20.7127C10.825 20.0431 10.7198 19.3564 10.416 18.75M7.29102 22.9167H17.7077" stroke="#3EE0CF" stroke-width="1.5" stroke-linecap="round"/>
</svg>
