<svg width="50" height="50" viewBox="0 0 50 50" fill="none" xmlns="http://www.w3.org/2000/svg">
<path d="M42.1875 8.20312H7.8125C7.0873 8.20313 6.3918 8.49121 5.87901 9.00401C5.36621 9.5168 5.07813 10.2123 5.07813 10.9375V42.1875C5.07807 42.3872 5.12905 42.5836 5.22624 42.7581C5.32344 42.9326 5.46361 43.0793 5.63345 43.1844C5.8033 43.2895 5.99719 43.3494 6.1967 43.3585C6.39622 43.3676 6.59475 43.3255 6.77344 43.2363L12.5 40.373L18.2266 43.2363C18.3891 43.3175 18.5683 43.3597 18.75 43.3597C18.9317 43.3597 19.1109 43.3175 19.2734 43.2363L25 40.373L30.7266 43.2363C30.8891 43.3175 31.0683 43.3597 31.25 43.3597C31.4317 43.3597 31.6109 43.3175 31.7734 43.2363L37.5 40.373L43.2266 43.2363C43.3891 43.3174 43.5683 43.3595 43.75 43.3594C43.9675 43.3597 44.1807 43.2988 44.3652 43.1836C44.5352 43.0788 44.6756 42.9322 44.773 42.7579C44.8704 42.5835 44.9217 42.3872 44.9219 42.1875V10.9375C44.9219 10.2123 44.6338 9.5168 44.121 9.00401C43.6082 8.49121 42.9127 8.20313 42.1875 8.20312ZM42.5781 40.291L38.0234 38.0137C37.8609 37.9325 37.6817 37.8903 37.5 37.8903C37.3183 37.8903 37.1391 37.9325 36.9766 38.0137L31.25 40.877L25.5234 38.0137C25.3609 37.9325 25.1817 37.8903 25 37.8903C24.8183 37.8903 24.6391 37.9325 24.4766 38.0137L18.75 40.877L13.0234 38.0137C12.8609 37.9325 12.6817 37.8903 12.5 37.8903C12.3183 37.8903 12.1391 37.9325 11.9766 38.0137L7.42188 40.291V10.9375C7.42188 10.8339 7.46303 10.7345 7.53629 10.6613C7.60954 10.588 7.7089 10.5469 7.8125 10.5469H42.1875C42.2911 10.5469 42.3905 10.588 42.4637 10.6613C42.537 10.7345 42.5781 10.8339 42.5781 10.9375V40.291ZM19.7988 18.2207C19.7016 18.0257 19.552 17.8616 19.3667 17.747C19.1815 17.6323 18.9679 17.5716 18.75 17.5716C18.5321 17.5716 18.3185 17.6323 18.1333 17.747C17.948 17.8616 17.7984 18.0257 17.7012 18.2207L11.4512 30.7207C11.3824 30.8584 11.3415 31.0084 11.3307 31.1619C11.3199 31.3155 11.3395 31.4696 11.3882 31.6156C11.437 31.7616 11.5141 31.8966 11.615 32.0128C11.716 32.129 11.8388 32.2242 11.9766 32.293C12.1143 32.3617 12.2642 32.4026 12.4178 32.4134C12.5713 32.4242 12.7255 32.4047 12.8715 32.3559C13.0175 32.3071 13.1525 32.23 13.2687 32.1291C13.3849 32.0282 13.4801 31.9053 13.5488 31.7676L14.7871 29.2969H22.7129L23.9512 31.7734C24.09 32.0516 24.3336 32.2632 24.6285 32.3618C24.9233 32.4603 25.2453 32.4377 25.5234 32.2988C25.8016 32.16 26.0132 31.9164 26.1118 31.6215C26.2103 31.3267 26.1877 31.0047 26.0488 30.7266L19.7988 18.2207ZM15.959 26.9531L18.75 21.3711L21.541 26.9531H15.959ZM38.6719 25C38.6719 25.3108 38.5484 25.6089 38.3286 25.8286C38.1089 26.0484 37.8108 26.1719 37.5 26.1719H33.9844V29.6875C33.9844 29.9983 33.8609 30.2964 33.6411 30.5161C33.4214 30.7359 33.1233 30.8594 32.8125 30.8594C32.5017 30.8594 32.2036 30.7359 31.9839 30.5161C31.7641 30.2964 31.6406 29.9983 31.6406 29.6875V26.1719H28.125C27.8142 26.1719 27.5161 26.0484 27.2964 25.8286C27.0766 25.6089 26.9531 25.3108 26.9531 25C26.9531 24.6892 27.0766 24.3911 27.2964 24.1714C27.5161 23.9516 27.8142 23.8281 28.125 23.8281H31.6406V20.3125C31.6406 20.0017 31.7641 19.7036 31.9839 19.4839C32.2036 19.2641 32.5017 19.1406 32.8125 19.1406C33.1233 19.1406 33.4214 19.2641 33.6411 19.4839C33.8609 19.7036 33.9844 20.0017 33.9844 20.3125V23.8281H37.5C37.8108 23.8281 38.1089 23.9516 38.3286 24.1714C38.5484 24.3911 38.6719 24.6892 38.6719 25Z" fill="#42D3B6"/>
</svg>
