<svg width="37" height="42" viewBox="0 0 37 42" fill="none" xmlns="http://www.w3.org/2000/svg">
<path d="M11.0566 14.0402L11.0525 14.0421L11.0465 14.0459L11.0566 14.0402ZM31.1832 13.6852C31.043 13.5572 30.8868 13.4457 30.7181 13.3529C30.4798 13.2212 30.2153 13.1368 29.9409 13.1049C29.6665 13.0729 29.388 13.0942 29.1227 13.1673C28.8574 13.2405 28.6109 13.3639 28.3984 13.53C28.1859 13.6962 28.012 13.9014 27.8874 14.1332C27.1902 15.4216 26.2297 16.5686 25.0607 17.5087C25.2396 16.5623 25.3303 15.6031 25.3316 14.642C25.3363 11.7185 24.5154 8.84603 22.9525 6.31743C21.3897 3.78884 19.1408 1.6945 16.435 0.247838C16.1369 0.0888014 15.8006 0.00355368 15.4578 0.000108726C15.1149 -0.00333622 14.7768 0.0751347 14.4751 0.228145C14.1734 0.381155 13.9182 0.603679 13.7333 0.874797C13.5484 1.14591 13.44 1.45672 13.4182 1.778C13.3047 3.57786 12.8033 5.33737 11.9446 6.95004C11.0858 8.56271 9.8874 9.99499 8.42198 11.1602L7.95693 11.5152C6.42322 12.4836 5.0659 13.6778 3.93728 15.0521C2.18278 17.1273 0.967408 19.5578 0.387565 22.1509C-0.192277 24.7439 -0.120642 27.4282 0.59679 29.9907C1.31422 32.5532 2.65772 34.9236 4.52071 36.9137C6.38371 38.9038 8.71495 40.459 11.3296 41.4559C11.6365 41.5732 11.9695 41.6179 12.2992 41.5859C12.6289 41.554 12.9451 41.4465 13.2202 41.2729C13.4952 41.0992 13.7205 40.8648 13.8763 40.5901C14.0322 40.3155 14.1137 40.0091 14.1138 39.6979C14.1137 39.4967 14.0796 39.2967 14.0127 39.1056C13.5614 37.5089 13.4311 35.8472 13.6285 34.2056C15.5417 37.594 18.6134 40.2794 22.3492 41.8299C22.8051 42.0206 23.3201 42.0463 23.7949 41.902C26.7459 41.0076 29.4043 39.4195 31.5176 37.2888C33.6309 35.158 35.1288 32.5553 35.8691 29.728C36.6094 26.9006 36.5675 23.9425 35.7474 21.1346C34.9272 18.3267 33.3561 15.7624 31.1832 13.6852Z" fill="#E34E2A"/>
<path d="M13.2532 20.5593L13.2504 20.5606L13.2462 20.5631L13.2532 20.5593ZM27.187 20.3227C27.0899 20.2374 26.9818 20.163 26.865 20.1012C26.7001 20.0134 26.5169 19.9571 26.327 19.9358C26.137 19.9145 25.9442 19.9287 25.7605 19.9774C25.5768 20.0262 25.4062 20.1085 25.2591 20.2192C25.112 20.33 24.9916 20.4668 24.9053 20.6213C24.4226 21.4803 23.7577 22.2449 22.9483 22.8717C23.0722 22.2408 23.135 21.6013 23.1359 20.9605C23.1391 19.0115 22.5708 17.0966 21.4888 15.4108C20.4069 13.7251 18.8499 12.3289 16.9767 11.3644C16.7703 11.2584 16.5375 11.2016 16.3002 11.1993C16.0628 11.197 15.8287 11.2493 15.6199 11.3513C15.411 11.4533 15.2343 11.6017 15.1063 11.7824C14.9783 11.9632 14.9032 12.1704 14.8882 12.3846C14.8096 13.5845 14.4625 14.7575 13.8679 15.8326C13.2734 16.9077 12.4438 17.8625 11.4292 18.6394L11.1073 18.876C10.0455 19.5216 9.1058 20.3178 8.32444 21.2339C7.10979 22.6174 6.26838 24.2378 5.86695 25.9665C5.46552 27.6952 5.51511 29.4847 6.0118 31.193C6.50848 32.9014 7.43859 34.4816 8.72836 35.8083C10.0181 37.1351 11.6321 38.1719 13.4422 38.8365C13.6547 38.9147 13.9975 39.1954 13.9975 39.1954C14.2257 39.1741 13.9975 37.7956 13.9975 37.7956C13.9975 37.7956 13.5169 36.1103 13.5491 35.6631C13.6397 34.4065 13.6447 34.4142 13.5491 34.2585C14.8737 36.5174 16.7971 39.1954 19.5967 40.5952C19.5967 40.5952 22.0676 42.0912 22.3963 41.995C23.7962 39.1954 25.9555 37.4789 27.4185 36.0584C28.8816 34.6379 29.9186 32.9028 30.4311 31.0179C30.9436 29.1329 30.9146 27.1609 30.3468 25.2889C29.779 23.417 28.6913 21.7075 27.187 20.3227Z" fill="#FEA500"/>
</svg>
