<svg width="28" height="31" viewBox="0 0 28 31" fill="none" xmlns="http://www.w3.org/2000/svg">
<path d="M10.4705 12.2655H10.4876M17.2945 12.2655H17.3116M1.94055 13.9764C1.94055 10.8 3.19872 7.7538 5.43827 5.5078C7.67782 3.26179 10.7153 2 13.8825 2C17.0497 2 20.0872 3.26179 22.3267 5.5078C24.5663 7.7538 25.8245 10.8 25.8245 13.9764V25.9527C25.9051 26.5984 25.7775 27.253 25.4601 27.8207C25.1428 28.3883 24.6526 28.839 24.0612 29.1069C23.4699 29.3747 22.8085 29.4455 22.1741 29.309C21.5397 29.1724 20.9656 28.8356 20.5359 28.348C20.2726 28.0102 19.9361 27.737 19.5518 27.5491C19.1675 27.3612 18.7456 27.2635 18.3181 27.2635C17.8906 27.2635 17.4687 27.3612 17.0844 27.5491C16.7001 27.737 16.3636 28.0102 16.1003 28.348C15.837 28.6858 15.5005 28.959 15.1162 29.147C14.7319 29.3349 14.31 29.4325 13.8825 29.4325C13.455 29.4325 13.0331 29.3349 12.6488 29.147C12.2645 28.959 11.928 28.6858 11.6647 28.348C11.4014 28.0102 11.0649 27.737 10.6806 27.5491C10.2963 27.3612 9.87444 27.2635 9.44693 27.2635C9.01941 27.2635 8.5975 27.3612 8.21323 27.5491C7.82896 27.737 7.49241 28.0102 7.22914 28.348C6.79946 28.8356 6.22534 29.1724 5.59093 29.309C4.95652 29.4455 4.29517 29.3747 3.70381 29.1069C3.11246 28.839 2.6222 28.3883 2.30488 27.8207C1.98757 27.253 1.85989 26.5984 1.94055 25.9527V13.9764Z" stroke="#42D3B6" stroke-width="2.5" stroke-linecap="round" stroke-linejoin="round"/>
<path d="M10.4707 19.1089C11.4719 19.8081 12.6627 20.1829 13.8827 20.1829C15.1027 20.1829 16.2935 19.8081 17.2947 19.1089" stroke="#42D3B6" stroke-width="2.5" stroke-linecap="round" stroke-linejoin="round"/>
</svg>
