<svg width="40" height="40" viewBox="0 0 40 40" fill="none" xmlns="http://www.w3.org/2000/svg">
<g clip-path="url(#clip0_196_144)">
<path d="M35.2504 20.0001L38.0837 15.7501C38.2146 15.541 38.2974 15.3055 38.3263 15.0605C38.3551 14.8155 38.3292 14.5672 38.2504 14.3334C38.1788 14.0974 38.0501 13.8826 37.8756 13.7082C37.7012 13.5338 37.4864 13.405 37.2504 13.3334L32.3337 11.3334L31.9171 6.41677C31.9096 6.17976 31.854 5.94675 31.7537 5.73187C31.6535 5.51699 31.5106 5.32474 31.3337 5.16677C31.1312 5.02195 30.8989 4.92432 30.6537 4.88106C30.4086 4.83779 30.1569 4.85 29.9171 4.91677L24.6671 6.0001L21.2504 2.16677C20.911 1.85045 20.4643 1.67456 20.0004 1.67456C19.5364 1.67456 19.0898 1.85045 18.7504 2.16677L15.3337 6.0001L10.0837 4.91677C9.8439 4.85 9.59217 4.83779 9.34702 4.88106C9.10187 4.92432 8.86953 5.02195 8.66705 5.16677C8.4902 5.32474 8.34731 5.51699 8.24703 5.73187C8.14675 5.94675 8.09119 6.17976 8.08372 6.41677L7.66705 11.3334L2.75038 13.3334C2.51433 13.405 2.29957 13.5338 2.12514 13.7082C1.95071 13.8826 1.82199 14.0974 1.75038 14.3334C1.6716 14.5672 1.64568 14.8155 1.6745 15.0605C1.70332 15.3055 1.78617 15.541 1.91705 15.7501L4.75038 20.0001L1.91705 24.2501C1.79133 24.4589 1.71294 24.6928 1.68741 24.9352C1.66188 25.1776 1.68983 25.4226 1.76929 25.6531C1.84875 25.8835 1.97778 26.0937 2.1473 26.2688C2.31681 26.444 2.52268 26.5798 2.75038 26.6668L7.66705 28.6668L8.08372 33.5834C8.09119 33.8204 8.14675 34.0535 8.24703 34.2683C8.34731 34.4832 8.4902 34.6755 8.66705 34.8334C8.86953 34.9783 9.10187 35.0759 9.34702 35.1192C9.59217 35.1624 9.8439 35.1502 10.0837 35.0834L15.3337 34.0001L18.7504 37.7501C18.9068 37.9275 19.0991 38.0695 19.3147 38.1668C19.5302 38.2641 19.7639 38.3144 20.0004 38.3144C20.2368 38.3144 20.4706 38.2641 20.6861 38.1668C20.9016 38.0695 21.094 37.9275 21.2504 37.7501L24.6671 34.0001L29.9171 35.0834C30.1569 35.1502 30.4086 35.1624 30.6537 35.1192C30.8989 35.0759 31.1312 34.9783 31.3337 34.8334C31.5106 34.6755 31.6535 34.4832 31.7537 34.2683C31.854 34.0535 31.9096 33.8204 31.9171 33.5834L32.3337 28.6668L37.2504 26.6668C37.4781 26.5798 37.684 26.444 37.8535 26.2688C38.023 26.0937 38.152 25.8835 38.2315 25.6531C38.3109 25.4226 38.3389 25.1776 38.3134 24.9352C38.2878 24.6928 38.2094 24.4589 38.0837 24.2501L35.2504 20.0001ZM15.0004 25.9168L11.5004 23.2501L10.5837 22.5001H10.5004L11.0004 23.6668L12.4171 27.0001L10.6671 27.6668L7.75039 20.5001L9.50039 19.8334L13.0837 22.5001L14.0004 23.2501C13.8558 22.8792 13.6888 22.5174 13.5004 22.1668L12.1671 18.7501L13.9171 18.0001L16.8337 25.1668L15.0004 25.9168ZM17.7504 24.8334L14.8337 17.5834L20.3337 15.4168L20.9171 16.9168L17.2504 18.3334L17.7504 19.6668L20.9171 18.3334L21.5004 19.7501L18.3337 21.0001L18.9171 22.5834L22.6671 21.0834L23.2504 22.5834L17.7504 24.8334ZM29.3337 20.0834L27.1671 17.0001L26.4171 15.7501H26.3337C26.4728 16.2153 26.5841 16.6884 26.6671 17.1668L27.3337 20.9168L25.5837 21.6668L20.6671 15.2501L22.5004 14.5001L24.4171 17.2501L25.5004 18.9168C25.356 18.2841 25.2448 17.6444 25.1671 17.0001L24.5837 13.6668L26.2504 13.0001L28.1671 15.8334L29.1671 17.4168C29.1671 17.4168 29.0004 16.2501 28.8337 15.4168L28.3337 12.1668L30.0837 11.4168L31.0837 19.4168L29.3337 20.0834Z" fill="#42D3B6"/>
</g>
<defs>
<clipPath id="clip0_196_144">
<rect width="40" height="40" fill="white"/>
</clipPath>
</defs>
</svg>
