<svg width="11" height="11" viewBox="0 0 11 11" fill="none" xmlns="http://www.w3.org/2000/svg">
<path d="M3.88129 3.84763L3.88037 3.84809L3.879 3.84901L3.88129 3.84763ZM8.44354 3.76193C8.41176 3.73104 8.37636 3.70411 8.33812 3.68172C8.28411 3.64992 8.22415 3.62953 8.16195 3.62183C8.09974 3.61412 8.03662 3.61925 7.97648 3.63691C7.91634 3.65456 7.86046 3.68437 7.8123 3.72447C7.76413 3.76458 7.72471 3.81414 7.69645 3.87009C7.53842 4.18115 7.3207 4.45805 7.0557 4.68501C7.09627 4.45654 7.11682 4.22497 7.11712 3.99293C7.11818 3.28712 6.9321 2.59365 6.57784 1.98318C6.22357 1.37272 5.71379 0.867099 5.10045 0.517842C5.03288 0.479447 4.95665 0.458866 4.87893 0.458034C4.80122 0.457202 4.72457 0.476147 4.65619 0.513087C4.58781 0.550028 4.52994 0.60375 4.48803 0.669204C4.44613 0.734658 4.42155 0.809694 4.41662 0.887258C4.39088 1.32179 4.27724 1.74657 4.08257 2.13591C3.8879 2.52525 3.61626 2.87103 3.28408 3.15234L3.17866 3.23805C2.831 3.47183 2.52333 3.76016 2.2675 4.09193C1.86979 4.59294 1.59429 5.17972 1.46285 5.80575C1.33141 6.43177 1.34765 7.07981 1.51028 7.69847C1.67291 8.31712 1.97745 8.88938 2.39975 9.36984C2.82205 9.8503 3.35049 10.2258 3.94316 10.4664C4.01275 10.4947 4.08822 10.5055 4.16296 10.4978C4.23769 10.4901 4.30938 10.4642 4.37172 10.4222C4.43406 10.3803 4.48514 10.3237 4.52046 10.2574C4.55579 10.1911 4.57427 10.1171 4.57429 10.042C4.57427 9.99343 4.56654 9.94516 4.55137 9.89901C4.44907 9.51353 4.41954 9.11236 4.46429 8.71605C4.89797 9.53407 5.59425 10.1824 6.44108 10.5567C6.54442 10.6028 6.66115 10.609 6.76879 10.5741C7.43771 10.3582 8.04032 9.9748 8.51935 9.46039C8.99838 8.94598 9.33793 8.31763 9.50575 7.63503C9.67356 6.95244 9.66406 6.23828 9.47815 5.56039C9.29223 4.88251 8.93609 4.26341 8.44354 3.76193ZM6.65375 9.6428C6.25414 9.44045 5.90163 9.15621 5.61916 8.8086C5.33669 8.46098 5.1306 8.05777 5.01429 7.62522C4.97878 7.47955 4.95124 7.33205 4.93179 7.18338C4.91874 7.08871 4.87643 7.00047 4.81077 6.93103C4.74511 6.86159 4.65938 6.81441 4.56558 6.79609C4.53673 6.79054 4.50741 6.78778 4.47804 6.78784C4.39751 6.78776 4.31838 6.8089 4.24862 6.84914C4.17886 6.88937 4.12093 6.94727 4.08066 7.01701C3.70047 7.67301 3.50932 8.42146 3.52837 9.17943C3.19386 8.91941 2.91428 8.59559 2.70585 8.22673C2.49742 7.85786 2.36428 7.4513 2.31414 7.03059C2.264 6.60989 2.29787 6.18342 2.41378 5.77591C2.52969 5.36839 2.72533 4.98793 2.98937 4.65659C3.19013 4.39643 3.43194 4.17073 3.70529 3.98834C3.71713 3.98048 3.7286 3.97207 3.73966 3.96313C3.73966 3.96313 3.87533 3.85084 3.87991 3.84855C4.53308 3.29624 4.99771 2.55395 5.20908 1.72509C5.7084 2.1868 6.0413 2.80046 6.15609 3.47078C6.27087 4.14109 6.16112 4.83055 5.84387 5.43209C5.80189 5.51238 5.78464 5.60331 5.79431 5.6934C5.80398 5.78349 5.84014 5.86869 5.89821 5.93824C5.95628 6.00778 6.03366 6.05856 6.12058 6.08415C6.20749 6.10974 6.30004 6.10899 6.38654 6.08201C7.08853 5.86173 7.70624 5.43179 8.15662 4.85001C8.42736 5.24978 8.60437 5.70551 8.67448 6.18321C8.74458 6.66092 8.70596 7.14829 8.5615 7.60899C8.41703 8.06969 8.17045 8.49185 7.84013 8.844C7.50981 9.19614 7.10428 9.46919 6.65375 9.6428Z" fill="#E57C14"/>
</svg>
