<svg width="15" height="15" viewBox="0 0 15 15" fill="none" xmlns="http://www.w3.org/2000/svg">
<path d="M5.3648 2.55594C6.31503 0.85198 6.78977 0 7.5 0C8.21023 0 8.68497 0.85198 9.6352 2.55594L9.88119 2.99693C10.1512 3.48142 10.2862 3.72366 10.4962 3.88341C10.7062 4.04315 10.9687 4.1024 11.4937 4.2209L11.9706 4.3289C13.8156 4.74664 14.7373 4.95513 14.9571 5.66087C15.1761 6.36585 14.5476 7.10158 13.2899 8.5723L12.9644 8.95254C12.6074 9.37028 12.4281 9.57952 12.3479 9.83752C12.2676 10.0963 12.2946 10.3753 12.3486 10.9325L12.3981 11.4402C12.5879 13.4029 12.6831 14.3839 12.1086 14.8197C11.5342 15.2554 10.6702 14.8579 8.94372 14.0629L8.49598 13.8574C8.00549 13.6309 7.76024 13.5184 7.5 13.5184C7.23976 13.5184 6.99451 13.6309 6.50402 13.8574L6.05703 14.0629C4.32982 14.8579 3.46584 15.2554 2.89211 14.8204C2.31687 14.3839 2.41212 13.4029 2.60187 11.4402L2.65136 10.9332C2.70536 10.3753 2.73236 10.0963 2.65136 9.83827C2.57187 9.57952 2.39262 9.37028 2.03563 8.95329L1.71014 8.5723C0.452416 7.10233 -0.17607 6.3666 0.0429252 5.66087C0.26192 4.95513 1.18515 4.74589 3.03011 4.3289L3.50709 4.2209C4.03133 4.1024 4.29308 4.04315 4.50382 3.88341C4.71457 3.72366 4.84881 3.48142 5.11881 2.99693L5.3648 2.55594Z" fill="#FFD801"/>
<path d="M6.43038 5.02798C6.90549 4.17599 7.14285 3.75 7.49796 3.75C7.85307 3.75 8.09043 4.17599 8.56553 5.02798L8.68853 5.24847C8.82352 5.49072 8.89102 5.61184 8.99601 5.69172C9.10101 5.77159 9.23225 5.80121 9.49474 5.86046L9.73323 5.91446C10.6557 6.12333 11.1165 6.22758 11.2264 6.58045C11.3359 6.93295 11.0217 7.30081 10.3928 8.03618L10.2301 8.2263C10.0516 8.43517 9.96197 8.53979 9.92184 8.66879C9.88172 8.79816 9.89522 8.93766 9.92222 9.21628L9.94697 9.47015C10.0418 10.4515 10.0895 10.942 9.80223 11.1599C9.51499 11.3777 9.08301 11.179 8.2198 10.7815L7.99593 10.6788C7.7507 10.5655 7.62808 10.5093 7.49796 10.5093C7.36784 10.5093 7.24522 10.5655 6.99998 10.6788L6.77649 10.7815C5.91291 11.179 5.48093 11.3777 5.19407 11.1602C4.90646 10.942 4.95408 10.4515 5.04895 9.47015L5.0737 9.21666C5.1007 8.93766 5.1142 8.79816 5.0737 8.66917C5.03395 8.53979 4.94433 8.43517 4.76584 8.22667L4.60309 8.03618C3.97425 7.30119 3.66001 6.93332 3.76951 6.58045C3.879 6.22758 4.34061 6.12296 5.26306 5.91446L5.50155 5.86046C5.76367 5.80121 5.89453 5.77159 5.9999 5.69172C6.10527 5.61184 6.1724 5.49072 6.30739 5.24847L6.43038 5.02798Z" fill="#FEA500"/>
</svg>
