<svg width="13" height="14" viewBox="0 0 13 14" fill="none" xmlns="http://www.w3.org/2000/svg">
<path d="M1 2.33364C0.999928 2.09905 1.06369 1.8686 1.18484 1.66554C1.306 1.46249 1.48026 1.29404 1.69003 1.17718C1.89979 1.06033 2.13764 0.999211 2.37956 1.00001C2.62148 1.0008 2.8589 1.06348 3.06784 1.18172L11.3151 5.84674C11.5233 5.96385 11.6961 6.13189 11.8162 6.33405C11.9364 6.53621 11.9998 6.76541 12 6.99876C12.0002 7.2321 11.9373 7.46142 11.8174 7.66378C11.6976 7.86614 11.5251 8.03446 11.3172 8.15192L3.06784 12.8183C2.8589 12.9365 2.62148 12.9992 2.37956 13C2.13764 13.0008 1.89979 12.9397 1.69003 12.8228C1.48026 12.706 1.306 12.5375 1.18484 12.3345C1.06369 12.1314 0.999928 11.9009 1 11.6664V2.33364Z" stroke="#42D3B6" stroke-width="2" stroke-linecap="round" stroke-linejoin="round"/>
</svg>
