<svg width="36" height="36" viewBox="0 0 36 36" fill="none" xmlns="http://www.w3.org/2000/svg">
<path d="M15.7958 15.9666L18.0001 29.5073C24.7312 29.5073 30.1878 26.792 30.1878 24.7281V15.9666H15.7958Z" fill="#003DA8"/>
<path d="M5.81226 15.9666V24.7282C5.81226 26.792 11.2689 29.5074 17.9999 29.5074V15.9666H5.81226Z" fill="#2F91ED"/>
<path d="M18 1.38269L16.5305 12.4068L18 23.431L36 12.4068L18 1.38269Z" fill="#2F91ED"/>
<path d="M0 12.4068L18.0001 23.431V1.38269L0 12.4068Z" fill="#63C1FF"/>
<path d="M10.1021 18.5363L19.0649 13.0591L16.9539 11.7662L7.89782 17.3015V28.7886L4.62231 32.0642L6.18093 33.6228L7.89782 31.9059V34.6173H10.1021V31.9059L11.8191 33.6228L13.3777 32.0642L10.1021 28.7886V18.5363Z" fill="#424242"/>
</svg>
