<svg width="25" height="25" viewBox="0 0 25 25" fill="none" xmlns="http://www.w3.org/2000/svg">
<path d="M18.4897 15.6251C18.4897 15.8323 18.4074 16.031 18.2608 16.1775C18.1143 16.3241 17.9156 16.4064 17.7084 16.4064H12.5001C12.2929 16.4064 12.0942 16.3241 11.9477 16.1775C11.8011 16.031 11.7188 15.8323 11.7188 15.6251C11.7188 15.4179 11.8011 15.2192 11.9477 15.0727C12.0942 14.9262 12.2929 14.8439 12.5001 14.8439H17.7084C17.9156 14.8439 18.1143 14.9262 18.2608 15.0727C18.4074 15.2192 18.4897 15.4179 18.4897 15.6251ZM7.79175 9.81679C7.71334 9.7482 7.62201 9.69598 7.52313 9.6632C7.42425 9.63043 7.31981 9.61777 7.21596 9.62595C7.1121 9.63414 7.01094 9.66301 6.91841 9.71087C6.82588 9.75873 6.74386 9.82461 6.67717 9.90464C6.61048 9.98467 6.56047 10.0772 6.53008 10.1769C6.49969 10.2765 6.48953 10.3812 6.50021 10.4848C6.51088 10.5885 6.54217 10.6889 6.59224 10.7803C6.64231 10.8716 6.71014 10.952 6.79175 11.0168L7.0355 11.2199C7.72196 11.7928 8.17091 12.1678 8.45841 12.4866C8.73133 12.7887 8.75737 12.9314 8.75737 13.021C8.75737 13.1105 8.73133 13.2522 8.45841 13.5553C8.16987 13.8741 7.72196 14.2501 7.0355 14.822L6.79175 15.0251C6.63825 15.1594 6.54334 15.3484 6.52732 15.5517C6.51129 15.7551 6.57541 15.9566 6.70598 16.1133C6.83655 16.2699 7.02321 16.3694 7.22609 16.3903C7.42897 16.4112 7.63198 16.3519 7.79175 16.2251L8.08029 15.9855C8.7105 15.4605 9.24696 15.0137 9.61779 14.6022C10.0115 14.1647 10.3199 13.6637 10.3199 13.021C10.3199 12.3782 10.0115 11.8762 9.61779 11.4397C9.24696 11.0282 8.7105 10.5814 8.08029 10.0564L7.79175 9.81679Z" fill="#42D4B7"/>
<path fill-rule="evenodd" clip-rule="evenodd" d="M12.4403 1.30225H12.5591C14.9643 1.30225 16.8486 1.30225 18.3195 1.50016C19.8236 1.70225 21.0111 2.12516 21.9434 3.05641C22.8757 3.9887 23.2976 5.1762 23.4997 6.68141C23.6976 8.1512 23.6976 10.0356 23.6976 12.4408V12.5595C23.6976 14.9647 23.6976 16.8491 23.4997 18.32C23.2976 19.8241 22.8747 21.0116 21.9434 21.9439C21.0111 22.8762 19.8236 23.2981 18.3184 23.5002C16.8486 23.6981 14.9643 23.6981 12.5591 23.6981H12.4403C10.0351 23.6981 8.15072 23.6981 6.67988 23.5002C5.17572 23.2981 3.98822 22.8752 3.05592 21.9439C2.12363 21.0116 1.70176 19.8241 1.49967 18.3189C1.30176 16.8491 1.30176 14.9647 1.30176 12.5595V12.4408C1.30176 10.0356 1.30176 8.1512 1.49967 6.68037C1.70176 5.1762 2.12467 3.9887 3.05592 3.05641C3.98822 2.12412 5.17572 1.70225 6.68092 1.50016C8.15072 1.30225 10.0351 1.30225 12.4403 1.30225ZM6.88822 3.04808C5.55697 3.22725 4.75384 3.56891 4.16113 4.16162C3.56738 4.75537 3.22676 5.55745 3.04759 6.88975C2.86634 8.24391 2.86426 10.0231 2.86426 12.5002C2.86426 14.9772 2.86634 16.7564 3.04759 18.1106C3.22676 19.4429 3.56842 20.246 4.16113 20.8397C4.75488 21.4325 5.55697 21.7731 6.88926 21.9522C8.24342 22.1335 10.0226 22.1356 12.4997 22.1356C14.9768 22.1356 16.7559 22.1335 18.1101 21.9522C19.4424 21.7731 20.2455 21.4314 20.8393 20.8387C21.432 20.245 21.7726 19.4429 21.9518 18.1106C22.133 16.7564 22.1351 14.9772 22.1351 12.5002C22.1351 10.0231 22.133 8.24391 21.9518 6.88975C21.7726 5.55745 21.4309 4.75433 20.8382 4.16058C20.2445 3.56787 19.4424 3.22725 18.1101 3.04808C16.7559 2.86683 14.9768 2.86475 12.4997 2.86475C10.0226 2.86475 8.24238 2.86683 6.88822 3.04808Z" fill="#42D4B7"/>
</svg>
