<svg width="37" height="37" viewBox="0 0 37 37" fill="none" xmlns="http://www.w3.org/2000/svg">
<g clip-path="url(#clip0_76_357)">
<path d="M1.15625 18.5C1.15625 23.0998 2.98353 27.5113 6.23612 30.7639C9.4887 34.0165 13.9002 35.8437 18.5 35.8437C23.0998 35.8437 27.5113 34.0165 30.7639 30.7639C34.0165 27.5113 35.8437 23.0998 35.8437 18.5C35.8437 13.9002 34.0165 9.4887 30.7639 6.23612C27.5113 2.98353 23.0998 1.15625 18.5 1.15625C13.9002 1.15625 9.4887 2.98353 6.23612 6.23612C2.98353 9.4887 1.15625 13.9002 1.15625 18.5M10.4062 12.7187H15.0312M12.7187 15.0312V10.4062M21.9687 12.7187H26.5937M24.2812 15.0312V10.4062" stroke="#42D3B6" stroke-width="1.5" stroke-linecap="round" stroke-linejoin="round"/>
<path d="M10.4062 26.5936C10.4062 22.6408 12.2439 21.1284 14.8216 21.1284C19.2924 21.1284 17.706 26.5936 22.1784 26.5936C24.7592 26.5936 26.5937 25.0797 26.5937 21.1284" stroke="#42D3B6" stroke-width="1.5" stroke-linecap="round" stroke-linejoin="round"/>
<path d="M1.15625 18.5C1.15625 23.0998 2.98353 27.5113 6.23612 30.7639C9.4887 34.0165 13.9002 35.8437 18.5 35.8437C23.0998 35.8437 27.5113 34.0165 30.7639 30.7639C34.0165 27.5113 35.8437 23.0998 35.8437 18.5C35.8437 13.9002 34.0165 9.4887 30.7639 6.23612C27.5113 2.98353 23.0998 1.15625 18.5 1.15625C13.9002 1.15625 9.4887 2.98353 6.23612 6.23612C2.98353 9.4887 1.15625 13.9002 1.15625 18.5M10.4062 12.7187H15.0312M12.7187 15.0312V10.4062M21.9687 12.7187H26.5937M24.2812 15.0312V10.4062" stroke="#42D3B6" stroke-width="1.5" stroke-linecap="round" stroke-linejoin="round"/>
<path d="M10.4062 26.5936C10.4062 22.6408 12.2439 21.1284 14.8216 21.1284C19.2924 21.1284 17.706 26.5936 22.1784 26.5936C24.7592 26.5936 26.5937 25.0797 26.5937 21.1284" stroke="#42D3B6" stroke-width="1.5" stroke-linecap="round" stroke-linejoin="round"/>
</g>
<defs>
<clipPath id="clip0_76_357">
<rect width="37" height="37" fill="white"/>
</clipPath>
</defs>
</svg>
