<svg width="42" height="42" viewBox="0 0 42 42" fill="none" xmlns="http://www.w3.org/2000/svg">
<g clip-path="url(#clip0_156_173)">
<path d="M18.4287 18.6277L21.0004 34.4253C28.8533 34.4253 35.2194 31.2573 35.2194 28.8495V18.6277H18.4287Z" fill="#003DA8"/>
<path d="M6.78125 18.6274V28.8494C6.78125 31.2571 13.1473 34.4251 21.0002 34.4251V18.6274H6.78125Z" fill="#2F91ED"/>
<path d="M21.0006 1.61304L19.2861 14.4745L21.0006 27.3361L42.0005 14.4745L21.0006 1.61304Z" fill="#2F91ED"/>
<path d="M0 14.4745L21.0001 27.3361V1.61304L0 14.4745Z" fill="#63C1FF"/>
<path d="M11.7857 21.6258L22.2423 15.2357L19.7795 13.7273L9.214 20.1852V33.5868L5.39258 37.4083L7.21096 39.2267L9.214 37.2237V40.387H11.7857V37.2237L13.7888 39.2267L15.6072 37.4083L11.7857 33.5868V21.6258Z" fill="#424242"/>
</g>
<defs>
<clipPath id="clip0_156_173">
<rect width="42" height="42" fill="white"/>
</clipPath>
</defs>
</svg>
