<svg width="11" height="11" viewBox="0 0 11 11" fill="none" xmlns="http://www.w3.org/2000/svg">
<g clip-path="url(#clip0_6_382)">
<path d="M0 5.5C0 4.75933 0.146667 4.048 0.44 3.366C0.733333 2.684 1.122 2.09733 1.606 1.606C2.09 1.11467 2.67667 0.726 3.366 0.44C4.05533 0.154 4.76667 0.00733333 5.5 0C6.248 0 6.963 0.146667 7.645 0.44C8.327 0.733333 8.91 1.122 9.394 1.606C9.878 2.09 10.2667 2.67667 10.56 3.366C10.8533 4.05533 11 4.76667 11 5.5C11 6.248 10.8533 6.95933 10.56 7.634C10.2667 8.30867 9.878 8.89533 9.394 9.394C8.91 9.89267 8.32333 10.285 7.634 10.571C6.94467 10.857 6.23333 11 5.5 11C4.76667 11 4.05533 10.857 3.366 10.571C2.67667 10.285 2.09 9.89267 1.606 9.394C1.122 8.89533 0.733333 8.30867 0.44 7.634C0.146667 6.95933 0 6.248 0 5.5ZM1.375 5.5C1.375 6.248 1.55833 6.941 1.925 7.579C2.29167 8.217 2.794 8.71567 3.432 9.075C4.07 9.43433 4.75933 9.61767 5.5 9.625C6.24067 9.63233 6.93 9.449 7.568 9.075C8.206 8.701 8.70833 8.20233 9.075 7.579C9.44167 6.95567 9.625 6.26267 9.625 5.5C9.625 4.73733 9.44167 4.048 9.075 3.432C8.70833 2.816 8.206 2.31733 7.568 1.936C6.93 1.55467 6.24067 1.36767 5.5 1.375C4.75933 1.38233 4.07 1.56933 3.432 1.936C2.794 2.30267 2.29167 2.80133 1.925 3.432C1.55833 4.06267 1.375 4.752 1.375 5.5ZM4.818 5.5V3.443C4.818 3.25233 4.884 3.091 5.016 2.959C5.148 2.827 5.30933 2.75733 5.5 2.75C5.69067 2.74267 5.852 2.81233 5.984 2.959C6.116 3.10567 6.18567 3.267 6.193 3.443V4.818H7.568C7.75133 4.818 7.91267 4.884 8.052 5.016C8.19133 5.148 8.25733 5.30933 8.25 5.5C8.24267 5.69067 8.17667 5.85567 8.052 5.995C7.92733 6.13433 7.766 6.20033 7.568 6.193H5.5C5.30933 6.193 5.148 6.127 5.016 5.995C4.884 5.863 4.818 5.698 4.818 5.5Z" fill="#767676"/>
</g>
<defs>
<clipPath id="clip0_6_382">
<rect width="11" height="11" fill="white"/>
</clipPath>
</defs>
</svg>
