<svg width="36" height="36" viewBox="0 0 36 36" fill="none" xmlns="http://www.w3.org/2000/svg">
<path d="M29.3503 4.90909H7.46794C7.00629 4.90909 6.56355 5.13034 6.23712 5.52416C5.91068 5.91798 5.72729 6.45212 5.72729 7.00907V31.0088C5.72726 31.1622 5.75971 31.3131 5.82158 31.4471C5.88345 31.5811 5.97268 31.6938 6.08081 31.7745C6.18893 31.8552 6.31235 31.9012 6.43936 31.9082C6.56636 31.9151 6.69274 31.8828 6.80649 31.8143L10.4519 29.6153L14.0973 31.8143C14.2008 31.8766 14.3148 31.9091 14.4305 31.9091C14.5462 31.9091 14.6602 31.8766 14.7637 31.8143L18.4091 29.6153L22.0545 31.8143C22.158 31.8766 22.2721 31.9091 22.3877 31.9091C22.5034 31.9091 22.6175 31.8766 22.7209 31.8143L26.3663 29.6153L30.0117 31.8143C30.1152 31.8765 30.2293 31.9089 30.3449 31.9088C30.4834 31.9091 30.6191 31.8623 30.7366 31.7738C30.8448 31.6933 30.9341 31.5808 30.9961 31.4469C31.0582 31.313 31.0908 31.1622 31.0909 31.0088V7.00907C31.0909 6.45212 30.9075 5.91798 30.5811 5.52416C30.2547 5.13034 29.8119 4.90909 29.3503 4.90909ZM29.599 29.5523L26.6995 27.8034C26.5961 27.741 26.482 27.7086 26.3663 27.7086C26.2507 27.7086 26.1366 27.741 26.0331 27.8034L22.3877 30.0023L18.7423 27.8034C18.6388 27.741 18.5248 27.7086 18.4091 27.7086C18.2935 27.7086 18.1794 27.741 18.0759 27.8034L14.4305 30.0023L10.7851 27.8034C10.6816 27.741 10.5676 27.7086 10.4519 27.7086C10.3362 27.7086 10.2222 27.741 10.1187 27.8034L7.21927 29.5523V7.00907C7.21927 6.9295 7.24547 6.8532 7.29211 6.79694C7.33874 6.74068 7.40199 6.70907 7.46794 6.70907H29.3503C29.4162 6.70907 29.4795 6.74068 29.5261 6.79694C29.5728 6.8532 29.599 6.9295 29.599 7.00907V29.5523ZM15.0982 12.6025C15.0363 12.4527 14.941 12.3268 14.8231 12.2387C14.7052 12.1506 14.5692 12.104 14.4305 12.104C14.2918 12.104 14.1558 12.1506 14.0379 12.2387C13.92 12.3268 13.8247 12.4527 13.7628 12.6025L9.78423 22.2024C9.74048 22.3082 9.71442 22.4233 9.70754 22.5413C9.70067 22.6592 9.71312 22.7776 9.74417 22.8897C9.77523 23.0019 9.82429 23.1055 9.88855 23.1947C9.95281 23.284 10.031 23.3571 10.1187 23.4099C10.2064 23.4627 10.3018 23.4941 10.3996 23.5024C10.4973 23.5107 10.5954 23.4957 10.6884 23.4582C10.7813 23.4208 10.8672 23.3616 10.9412 23.2841C11.0152 23.2065 11.0758 23.1122 11.1196 23.0064L11.9078 21.1089H16.9532L17.7415 23.0109C17.8298 23.2245 17.9849 23.3871 18.1726 23.4627C18.3603 23.5384 18.5652 23.521 18.7423 23.4144C18.9194 23.3078 19.0541 23.1207 19.1168 22.8942C19.1796 22.6678 19.1651 22.4205 19.0768 22.2069L15.0982 12.6025ZM12.6538 19.3089L14.4305 15.022L16.2072 19.3089H12.6538ZM27.1123 17.809C27.1123 18.0477 27.0337 18.2766 26.8938 18.4453C26.7539 18.6141 26.5642 18.7089 26.3663 18.7089H24.1284V21.4089C24.1284 21.6476 24.0498 21.8765 23.9099 22.0453C23.77 22.2141 23.5802 22.3089 23.3824 22.3089C23.1845 22.3089 22.9948 22.2141 22.8549 22.0453C22.715 21.8765 22.6364 21.6476 22.6364 21.4089V18.7089H20.3984C20.2006 18.7089 20.0108 18.6141 19.8709 18.4453C19.731 18.2766 19.6524 18.0477 19.6524 17.809C19.6524 17.5703 19.731 17.3413 19.8709 17.1726C20.0108 17.0038 20.2006 16.909 20.3984 16.909H22.6364V14.209C22.6364 13.9703 22.715 13.7414 22.8549 13.5726C22.9948 13.4038 23.1845 13.309 23.3824 13.309C23.5802 13.309 23.77 13.4038 23.9099 13.5726C24.0498 13.7414 24.1284 13.9703 24.1284 14.209V16.909H26.3663C26.5642 16.909 26.7539 17.0038 26.8938 17.1726C27.0337 17.3413 27.1123 17.5703 27.1123 17.809Z" fill="#42D3B6"/>
</svg>
